{"title":"The Karate Kid (2010) DVDRIP.H264.FEEL-FREE","uid":5713300,"size":1601792337,"categoryP":"video","categoryS":"movies","magnet":"?xt=urn:btih:ab4d1d69b6ce7cbdee7cbfa34f659e49726973fa&amp;dn=The+Karate+Kid+%282010%29+DVDRIP.H264.FEEL-FREE&amp;tr=udp%3A%2F%2Ftracker.openbittorrent.com%3A80&amp;tr=udp%3A%2F%2Fopen.demonii.com%3A1337&amp;tr=udp%3A%2F%2Ftracker.coppersurfer.tk%3A6969&amp;tr=udp%3A%2F%2Fexodus.desync.com%3A6969","seeders":0,"leechers":0,"uploader":"neon","files":10,"time":1279987563,"description":"Genre:Action/Drama/Family/Sport\nLanguage:English\nIMDb:http://www.imdb.com/title/tt1155076/\nSource:DVD5.RUS\nSubtitles: ROMANA\nSample:yes\nEncoder: Tony2\n..............................................\nGeneral\nComplete name : The Karate Kid (2010) DVDRIP.H264.FEEL-FREE\nFormat : MPEG-4\nFormat profile : Base Media\nCodec ID : isom\nFile size : 1.47 GiB\nDuration : 2h 7mn\nOverall bit rate : 1 651 Kbps\n..............................................\nVideo\nID : 1\nFormat : AVC\nFormat/Info : Advanced Video Codec\nFormat profile : &lt;a class=&quot;__cf_email__&quot; href=&quot;/cdn-cgi/l/email-protection&quot; data-cfemail=&quot;fab89b899f9693949fbab6cfd4cb&quot;&gt;[email&amp;#160;protected]&lt;/a&gt;&lt;script cf-hash='f9e31' type=&quot;text/javascript&quot;&gt;\n/* &lt;![CDATA[ */!function(){try{var t=&quot;currentScript&quot;in document?document.currentScript:function(){for(var t=document.getElementsByTagName(&quot;script&quot;),e=t.length;e--;)if(t[e].getAttribute(&quot;cf-hash&quot;))return t[e]}();if(t&amp;&amp;t.previousSibling){var e,r,n,i,c=t.previousSibling,a=c.getAttribute(&quot;data-cfemail&quot;);if(a){for(e=&quot;&quot;,r=parseInt(a.substr(0,2),16),n=2;a.length-n;n+=2)i=parseInt(a.substr(n,2),16)^r,e+=String.fromCharCode(i);e=document.createTextNode(e),c.parentNode.replaceChild(e,c)}}}catch(u){}}();/* ]]&gt; */&lt;/script&gt;\nFormat settings, CABAC : No\nFormat settings, ReFrames : 1 frame\nCodec ID : avc1\nCodec ID/Info : Advanced Video Coding\nDuration : 2h 7mn\nBit rate mode : Variable\nBit rate : 1 518 Kbps\nWidth : 720 pixels\nHeight : 304 pixels\nDisplay aspect ratio : 2.35:1\nFrame rate mode : Constant\nFrame rate : 25.000 fps\nResolution : 24 bits\nColorimetry : 4:2:0\nScan type : Progressive\nBits/(Pixel*Frame) : 0.277\nStream size : 1.35 GiB (92%)\n............................................\nAudio\nID : 2\nFormat : AAC\nFormat/Info : Advanced Audio Codec\nFormat version : Version 4\nFormat profile : LC\nFormat settings, SBR : No\nCodec ID : 40\nDuration : 2h 7mn\nBit rate mode : Variable\nBit rate : 128 Kbps\nChannel(s) : 2 channels\nChannel positions : L R\nSampling rate : 48.0 KHz\nResolution : 16 bits\nStream size : 117 MiB (8%)\n..........................................\nPlot:\nWork causes a single mother to move to China with her young son; in his new home, the boy embraces kung fu, taught to him by a master\n...................................................","torrent":{"xt":"urn:btih:ab4d1d69b6ce7cbdee7cbfa34f659e49726973fa","amp;dn":"The+Karate+Kid+%282010%29+DVDRIP.H264.FEEL-FREE","amp;tr":["udp%3A%2F%2Ftracker.openbittorrent.com%3A80","udp%3A%2F%2Fopen.demonii.com%3A1337","udp%3A%2F%2Ftracker.coppersurfer.tk%3A6969","udp%3A%2F%2Fexodus.desync.com%3A6969"],"infoHash":"ab4d1d69b6ce7cbdee7cbfa34f659e49726973fa","infoHashBuffer":{"type":"Buffer","data":[171,77,29,105,182,206,124,189,238,124,191,163,79,101,158,73,114,105,115,250]},"announce":[],"urlList":[]}}